<svg fill="white" xmlns="http://www.w3.org/2000/svg" viewBox="0 0 1656.57 362.63"><defs><style>.cls-1{fill:#abcd41;}</style></defs><g id="Layer_2" data-name="Layer 2"><g id="Layer_1-2" data-name="Layer 1"><path d="M0,362.63,54,107.07h70.71l-54,255.56ZM60.61,76.77,76.77,0H148L131.82,76.77Z"/><path d="M125.75,362.63,139.9,296H322.22q9.09,0,13.39-3.53t6.31-13.13L352,231.82a24.19,24.19,0,0,0,.51-5.55q0-9.11-13.14-9.1H204.54q-20.72,0-30-8.83t-9.34-25a86.4,86.4,0,0,1,1.51-14.65L185.35,80.3q6.56-30.3,22.22-44.95t49-14.64H469.19L455.56,85.86H274.24q-8.08,0-11.61,3.54T257.07,102l-9.6,45q-.51,2-.75,3.54a17.22,17.22,0,0,0-.26,3q0,7.58,11.11,7.57H394.45q21.21,0,30.55,9.09t9.35,25.26a72.34,72.34,0,0,1-1.52,14.14L413.13,303q-6.57,30.32-22.22,45t-48.49,14.65Z"/><path d="M801.52,362.63l37.88-180.3c.33-1.35.58-2.53.76-3.54a19.35,19.35,0,0,0,.25-3q0-7.57-12.63-7.58H752c-5.39,0-9.26.94-11.61,2.78s-4,5.14-5,9.85L697,362.63h-70.7l37.87-180.3c.34-1.35.59-2.53.76-3.54a18.22,18.22,0,0,0,.25-3q0-7.57-12.12-7.58H576.77c-5,0-8.76.94-11.11,2.78s-4.22,5.64-5.56,11.37l-37.88,180.3h-70.7l54-255.56h68.18l-6.06,27.78q18.18-27.76,50-27.78H703q19.2,0,28.79,6.57t10.1,21.21q11.63-14.64,23.24-21.21t27.77-6.57h85.36q20.19,0,29.8,7.33t9.59,24a91,91,0,0,1-2,18.68L872.23,362.63Z"/><path d="M968.18,362.63q-19.2,0-27.77-7.32t-8.59-22a92.87,92.87,0,0,1,2.52-18.69L947,254A134.37,134.37,0,0,1,954,230.31a42.63,42.63,0,0,1,10.1-15.16,34.2,34.2,0,0,1,14.65-7.82,81.62,81.62,0,0,1,20.71-2.28h129.8l-9.09,43.44h-92.93q-7.08,0-10.11,2.52t-4.54,10.61l-5.56,26.77c-.34,1.69-.59,3-.75,4a17.22,17.22,0,0,0-.26,3q0,6.57,9.6,6.56h118.18l26.77-125.25a24.29,24.29,0,0,0,.51-5.56,8.08,8.08,0,0,0-2.53-6.31c-1.69-1.51-4.88-2.27-9.6-2.27H975.76l11.62-55.56h209.09q22.21,0,31.31,7.33t9.09,23q0,7.06-2.52,19.69l-43.44,205.56Z"/><path d="M1242.42,362.63l54-255.56h68.68l-6.06,27.78q9.6-14.64,21.47-21.21t28.53-6.57h74.25l-13.13,61.11h-102c-5,0-8.83.94-11.36,2.78s-4.47,5.64-5.81,11.37l-37.88,180.3Z"/><path d="M1518.18,362.63q-21.21,0-30.55-7.32t-9.35-23q0-7.06,2.53-19.7l58.58-276.77h70.71L1595,107.07h61.62L1645,162.63h-61.62l-27.78,130.81a44.85,44.85,0,0,0-1,6.56q0,7.08,11.12,7.07h46.46l-11.62,55.56Z"/><polygon class="cls-1" points="60.61 76.77 76.77 0 147.98 0 131.82 76.77 60.61 76.77"/></g></g></svg>